<svg width="120" height="120" viewBox="0 0 120 120" fill="none" xmlns="http://www.w3.org/2000/svg">
<path fill-rule="evenodd" clip-rule="evenodd" d="M7.9 102.7V30.4H112V102.7H88.6V70.8C93.2999 68.5 96.4 63.6 96.4 58.3C96.4 53.3 93.8 48.7 89.5 46.2L89 45.9H84.8V55.5H80V45.9H75.6L75.1 46.2C70.9 48.7 68.2 53.4 68.2 58.3C68.2 63.6 71.3 68.4 76 70.8V102.7H51.1V61.9H63.4999V46H29.3999V47.9C29.3999 50.2 27.5999 52 25.2999 52H23.3999V61.9H38.5V102.7H7.9ZM79.9 102.7H84.7V68.2L85.9 67.7C89.8 66.2 92.4 62.4 92.4 58.2C92.4 55.1 90.9 52.1 88.5 50.2V59.2H76.1V50.2C73.7 52.1 72.2 55.1 72.2 58.2C72.2 62.4 74.7999 66.2 78.7 67.7L79.9 68.2V102.7ZM42.4 61.9H47.2V102.7H42.4V61.9ZM51.1 58H38.5H27.2999V55.6C30.0999 54.9 32.3999 52.6 33.0999 49.8H59.6999V58H51.1ZM4 26.5V13H115.8V26.5V30.4V106.5H4V30.4V26.5ZM112 26.5V16.9H7.9V26.5H112ZM30.3999 19.7H34.6999V23.6H30.3999V19.7ZM26.1 19.7H21.8V23.6H26.1V19.7ZM13.1001 19.7H17.4001V23.6H13.1001V19.7ZM65.7999 71.5H61.8999V75.8H65.7999V71.5ZM61.8999 80.1H65.7999V84.4H61.8999V80.1ZM65.7999 88.8H61.8999V93.1H65.7999V88.8Z" fill="#5C5C66"/>
</svg>
