<svg width="120" height="120" viewBox="0 0 120 120" fill="none" xmlns="http://www.w3.org/2000/svg">
<path fill-rule="evenodd" clip-rule="evenodd" d="M9.9 101.1V77.2H78V101.1H9.9ZM82 101.1H109.6V77.2H82V101.1ZM6 105V77.2V31.8V28V15H113.5V28V31.8V105H6ZM109.6 28H9.9V18.9H109.6V28ZM109.4 73.3H9.9V31.9H109.4V73.3ZM16.1001 21.5H20.0001V25.4H16.1001V21.5ZM27.7999 21.5H23.8999V25.4H27.7999V21.5ZM31.7 21.5H35.6V25.4H31.7V21.5ZM89 46H31V50H89V46ZM19 87V83H67V87H19ZM77 56H43V60H77V56ZM19 91H53V95H19V91Z" fill="#5C5C66"/>
</svg>
