<svg width="120" height="120" viewBox="0 0 120 120" fill="none" xmlns="http://www.w3.org/2000/svg">
<path fill-rule="evenodd" clip-rule="evenodd" d="M6 59.8C6 89.4 30.1 113.5 59.8 113.5C89.4 113.5 113.5 89.4 113.6 59.8C113.6 30.1 89.4 6 59.8 6C30.1 6 6 30.1 6 59.8ZM9.9 59.8C9.9 32.3 32.3 9.9 59.8 9.9C87.3 9.9 109.7 32.3 109.7 59.8C109.7 87.3 87.3 109.7 59.8 109.7C32.3 109.7 9.9 87.3 9.9 59.8ZM49.8822 78.6816C52.9533 80.2686 56.3351 81.1 59.8 81.1C71.6 81.1 81.1 71.5 81.1 59.7C81.1 56.2532 80.2772 52.8886 78.7064 49.8303L86.9001 32.6L69.6698 40.7937C66.6114 39.2228 63.2468 38.4 59.7999 38.4C47.9999 38.4 38.3999 48 38.3999 59.8C38.3999 63.2469 39.2227 66.6116 40.7937 69.6701L32.6001 86.9L49.8822 78.6816ZM54.6359 76.421L69.4001 69.4L76.5081 54.4528C77.036 56.1387 77.3 57.9194 77.3 59.7C77.3 69.4 69.4 77.2 59.8 77.2C58.0338 77.2 56.3001 76.9403 54.6359 76.421ZM43.0711 64.8809C42.557 63.2146 42.2999 61.4573 42.2999 59.7C42.2999 50 50.1999 42.2 59.7999 42.2C61.5896 42.2 63.3459 42.4667 65.0305 42.9999L50.1001 50.1L43.0711 64.8809ZM14.7 59.8C14.7 84.7 34.8999 104.9 59.7999 104.9C84.5999 104.9 104.9 84.6 104.9 59.8C104.9 34.9 84.7 14.7 59.7999 14.7C34.8999 14.7 14.7 34.9 14.7 59.8ZM18.5 59.8C18.5 37 37 18.5 59.7999 18.5C82.5 18.5 101 37 101 59.8C101 82.5 82.5 101 59.7999 101C37 101 18.5 82.5 18.5 59.8ZM61.7001 27.2H57.8V33.2H61.7001V27.2ZM27.2 57.8H33.2V61.7H27.2V57.8ZM61.7001 86.3H57.8V92.3H61.7001V86.3ZM86.3 57.8H92.3V61.7H86.3V57.8ZM59.7999 66.9C57.8999 66.9 56.0999 66.2 54.7999 64.8C53.5 63.5 52.7 61.7 52.7 59.8C52.7 58.5621 52.9971 57.3667 53.5913 56.3244L52.1204 54.853L40.8001 78.7L64.6837 67.3622L63.3003 65.9784C62.2521 66.555 61.0476 66.9 59.7999 66.9ZM66.0539 63.2166C67.5066 60.5131 67.0886 57.0887 64.7999 54.8C63.5 53.4 61.7 52.7 59.7999 52.7C58.5857 52.7 57.4124 53.0267 56.3842 53.6019L54.887 52.1042L78.7001 40.8L67.4133 64.5763L66.0539 63.2166ZM59.7999 56.5C58.8999 56.5 58.0999 56.8 57.5 57.4C56.9 58 56.5999 58.8 56.5999 59.7C56.5999 60.6 56.9 61.4 57.5 62C58.7 63.2 60.8999 63.2 62.0999 62C63.3999 60.7 63.3999 58.7 62.0999 57.4C61.3999 56.9 60.5999 56.5 59.7999 56.5Z" fill="#5C5C66"/>
</svg>
