<svg width="120" height="120" viewBox="0 0 120 120" fill="none" xmlns="http://www.w3.org/2000/svg">
<rect width="120" height="120" fill="white"/>
<path fill-rule="evenodd" clip-rule="evenodd" d="M16.8999 54.8H102.6V10H16.8999V54.8ZM98.6999 50.9H20.7999V13.9H98.6999V50.9ZM23.8 47.9H95.7V16.9H23.8V47.9ZM91.8 44H27.7001V20.8H91.8V44ZM61.7001 58.9H57.8V67.3H16.8999V79.5H20.7999V71.2H57.8V79.5H61.7001V71.2H98.6999V79.5H102.6V67.3H61.7001V58.9ZM18.9 109.3C11.8 109.3 6 103.6 6 96.5C6 89.4 11.8 83.6 18.9 83.6C26 83.6 31.8 89.4 31.8 96.5C31.7 103.6 25.9 109.3 18.9 109.3ZM18.9 87.5C14 87.5 9.9 91.5 9.9 96.5C9.9 101.4 13.9 105.5 18.9 105.5C23.8 105.5 27.9 101.5 27.9 96.5C27.8 91.5 23.8 87.5 18.9 87.5ZM46.8999 96.4C46.8999 103.5 52.6999 109.3 59.7999 109.3C66.7999 109.3 72.5999 103.6 72.6999 96.4C72.6999 89.3 66.8999 83.5 59.7999 83.5C52.6999 83.5 46.8999 89.3 46.8999 96.4ZM50.7999 96.5C50.7999 91.5 54.8999 87.5 59.7999 87.5C64.6999 87.5 68.6999 91.5 68.7999 96.5C68.7999 101.5 64.7999 105.5 59.7999 105.5C54.7999 105.5 50.7999 101.4 50.7999 96.5ZM100.7 109.3C93.6 109.3 87.8 103.5 87.8 96.4C87.8 89.3 93.6 83.5 100.7 83.5C107.8 83.5 113.6 89.3 113.6 96.4C113.5 103.6 107.8 109.3 100.7 109.3ZM100.7 87.5C95.8 87.5 91.7 91.5 91.7 96.5C91.7 101.4 95.7 105.5 100.7 105.5C105.6 105.5 109.7 101.5 109.7 96.5C109.6 91.5 105.6 87.5 100.7 87.5ZM57.8 30.5H61.7001V34.4H57.8V30.5ZM53.9 30.5H50V34.4H53.9V30.5ZM65.6001 30.5H69.5001V34.4H65.6001V30.5Z" fill="#5C5C66"/>
</svg>
