<?xml version="1.0" encoding="UTF-8"?>
<svg version="1.1" viewBox="0 0 64 64" xmlns="http://www.w3.org/2000/svg" xmlns:xlink="http://www.w3.org/1999/xlink">
    <!--Generated by IJSVG (https://github.com/iconjar/IJSVG)-->
    <g stroke-width="2" fill="none" stroke="#000">
        <path d="M56,45c4.19,0 7,-2.81 7,-7c0,-4.189 -2.81,-9 -7,-9c0,-10.475 -9.525,-18 -20,-18c-9.271,0 -17.348,6.211 -19,15c0,0 -1.232,0 -2,0c-5.238,0 -9,4.762 -9,10c0,5.238 3.762,9 9,9h41Z"></path>
        <path d="M7.004,32.959c-1.59,-1.017 -2.943,-2.37 -3.961,-3.96c-1.293,-2.02 -2.043,-4.422 -2.043,-6.999c0,-7.18 5.82,-13 13,-13c4.604,0 8.646,2.392 10.957,6.001"></path>
        <path d="M20,48l-8,14"></path>
        <path d="M30,48l-8,14"></path>
        <path d="M40,48l-8,14"></path>
        <path d="M50,48l-8,14"></path>
    </g>
</svg>