<svg width="120" height="120" viewBox="0 0 120 120" fill="none" xmlns="http://www.w3.org/2000/svg">
<g clip-path="url(#clip0)">
<rect x="6" y="12" width="108" height="96" rx="4" fill="white" stroke="#564B85" stroke-width="4" stroke-linejoin="round"/>
<rect x="14" y="20" width="92" height="80" fill="url(#paint0_linear)" fill-opacity="0.2"/>
<path fill-rule="evenodd" clip-rule="evenodd" d="M54.9702 29.7743L47.0305 28L45.0466 34.7895C43.1645 34.8337 41.3272 35.1631 39.5879 35.744L35.4198 30.027L28.551 34.3865L31.9499 40.5918C30.6837 41.9184 29.6036 43.4406 28.7625 45.1249L21.7743 44.0299L20 51.9695L26.7895 53.9534C26.8337 55.8356 27.163 57.6728 27.744 59.4122L22.027 63.5802L26.3865 70.449L32.5918 67.0501C33.9183 68.3163 35.4406 69.3964 37.1249 70.2376L36.0298 77.2257L43.9695 79L45.9534 72.2105C47.8355 72.1664 49.6728 71.837 51.4122 71.256L55.5802 76.973L62.449 72.6135L59.0501 66.4083C60.3163 65.0817 61.3964 63.5594 62.2375 61.8751L69.2257 62.9702L71 55.0305L64.2105 53.0466C64.1663 51.1645 63.837 49.3273 63.256 47.5879L68.973 43.4198L64.6135 36.551L58.4082 39.9499C57.0816 38.6838 55.5594 37.6037 53.8751 36.7625L54.9702 29.7743ZM43.4736 62.5679C48.4816 63.687 53.4487 60.5345 54.5679 55.5264C55.6871 50.5184 52.5345 45.5513 47.5264 44.4321C42.5184 43.3129 37.5513 46.4655 36.4321 51.4735C35.3129 56.4816 38.4655 61.4487 43.4736 62.5679Z" fill="white"/>
<path d="M47.0305 28L47.4667 26.0481C46.4375 25.8181 45.4066 26.4268 45.1108 27.4391L47.0305 28ZM54.9702 29.7743L56.946 30.0839C57.1093 29.0421 56.4355 28.0524 55.4063 27.8224L54.9702 29.7743ZM45.0466 34.7895L45.0935 36.789C45.9645 36.7685 46.722 36.1867 46.9663 35.3505L45.0466 34.7895ZM39.5879 35.744L37.9718 36.9223C38.4851 37.6263 39.3951 37.9171 40.2215 37.641L39.5879 35.744ZM35.4198 30.027L37.0359 28.8488C36.4146 27.9966 35.2385 27.7733 34.3481 28.3384L35.4198 30.027ZM28.551 34.3865L27.4793 32.6979C26.5889 33.263 26.2903 34.4224 26.7969 35.3473L28.551 34.3865ZM31.9499 40.5918L33.3967 41.9726C33.9983 41.3424 34.1226 40.3951 33.704 39.631L31.9499 40.5918ZM28.7625 45.1249L28.4528 47.1008C29.3135 47.2357 30.1625 46.7979 30.5517 46.0185L28.7625 45.1249ZM21.7743 44.0299L22.0839 42.054C21.0421 41.8907 20.0524 42.5645 19.8224 43.5937L21.7743 44.0299ZM20 51.9695L18.0481 51.5333C17.8181 52.5625 18.4268 53.5934 19.4391 53.8892L20 51.9695ZM26.7895 53.9534L28.789 53.9065C28.7685 53.0355 28.1867 52.278 27.3505 52.0337L26.7895 53.9534ZM27.744 59.4122L28.9222 61.0283C29.6263 60.515 29.917 59.605 29.641 58.7785L27.744 59.4122ZM22.027 63.5802L20.8488 61.9641C19.9966 62.5854 19.7733 63.7616 20.3384 64.6519L22.027 63.5802ZM26.3865 70.449L24.6979 71.5207C25.2631 72.4111 26.4224 72.7097 27.3473 72.2031L26.3865 70.449ZM32.5918 67.0501L33.9726 65.6033C33.3423 65.0018 32.3951 64.8775 31.631 65.296L32.5918 67.0501ZM37.1249 70.2376L39.1008 70.5472C39.2356 69.6865 38.7979 68.8375 38.0185 68.4483L37.1249 70.2376ZM36.0298 77.2257L34.054 76.9161C33.8907 77.9579 34.5645 78.9475 35.5937 79.1775L36.0298 77.2257ZM43.9695 79L43.5333 80.9519C44.5625 81.1818 45.5934 80.5732 45.8892 79.5609L43.9695 79ZM45.9534 72.2105L45.9065 70.2111C45.0355 70.2315 44.278 70.8134 44.0337 71.6496L45.9534 72.2105ZM51.4122 71.256L53.0283 70.0778C52.515 69.3737 51.6049 69.083 50.7785 69.359L51.4122 71.256ZM55.5802 76.973L53.9641 78.1512C54.5854 79.0034 55.7615 79.2267 56.6519 78.6616L55.5802 76.973ZM62.449 72.6135L63.5207 74.3021C64.4111 73.737 64.7097 72.5776 64.2031 71.6527L62.449 72.6135ZM59.0501 66.4083L57.6033 65.0274C57.0017 65.6577 56.8774 66.6049 57.296 67.3691L59.0501 66.4083ZM62.2375 61.8751L62.5472 59.8992C61.6865 59.7644 60.8375 60.2022 60.4483 60.9815L62.2375 61.8751ZM69.2257 62.9702L68.9161 64.9461C69.9579 65.1093 70.9475 64.4356 71.1775 63.4064L69.2257 62.9702ZM71 55.0305L72.9519 55.4667C73.1818 54.4375 72.5732 53.4066 71.5609 53.1108L71 55.0305ZM64.2105 53.0466L62.211 53.0935C62.2315 53.9645 62.8133 54.722 63.6495 54.9663L64.2105 53.0466ZM63.256 47.5879L62.0777 45.9718C61.3737 46.4851 61.083 47.3951 61.359 48.2215L63.256 47.5879ZM68.973 43.4198L70.1512 45.0359C71.0034 44.4147 71.2267 43.2385 70.6616 42.3481L68.973 43.4198ZM64.6135 36.551L66.3021 35.4793C65.737 34.5889 64.5776 34.2903 63.6527 34.7969L64.6135 36.551ZM58.4082 39.9499L57.0274 41.3967C57.6577 41.9983 58.6049 42.1226 59.369 41.704L58.4082 39.9499ZM53.8751 36.7625L51.8992 36.4529C51.7644 37.3135 52.2021 38.1625 52.9815 38.5517L53.8751 36.7625ZM54.5679 55.5264L52.616 55.0902L52.616 55.0902L54.5679 55.5264ZM43.4736 62.5679L43.0374 64.5197L43.0374 64.5197L43.4736 62.5679ZM36.4321 51.4735L34.4802 51.0374L34.4802 51.0374L36.4321 51.4735ZM46.5943 29.9519L54.534 31.7262L55.4063 27.8224L47.4667 26.0481L46.5943 29.9519ZM46.9663 35.3505L48.9502 28.5609L45.1108 27.4391L43.1269 34.2286L46.9663 35.3505ZM40.2215 37.641C41.7748 37.1222 43.4144 36.8284 45.0935 36.789L44.9997 32.7901C42.9145 32.839 40.8797 33.2039 38.9542 33.8471L40.2215 37.641ZM33.8037 31.2052L37.9718 36.9223L41.204 34.5658L37.0359 28.8488L33.8037 31.2052ZM29.6228 36.0751L36.4915 31.7156L34.3481 28.3384L27.4793 32.6979L29.6228 36.0751ZM33.704 39.631L30.3051 33.4257L26.7969 35.3473L30.1958 41.5526L33.704 39.631ZM30.5517 46.0185C31.3022 44.5159 32.266 43.1573 33.3967 41.9726L30.5031 39.2109C29.1015 40.6794 27.9051 42.3653 26.9732 44.2313L30.5517 46.0185ZM21.4647 46.0057L28.4528 47.1008L29.0721 43.149L22.0839 42.054L21.4647 46.0057ZM21.9519 52.4057L23.7262 44.466L19.8224 43.5937L18.0481 51.5333L21.9519 52.4057ZM27.3505 52.0337L20.5609 50.0498L19.4391 53.8892L26.2286 55.8731L27.3505 52.0337ZM29.641 58.7785C29.1222 57.2252 28.8283 55.5856 28.789 53.9065L24.7901 54.0003C24.839 56.0855 25.2039 58.1203 25.847 60.0458L29.641 58.7785ZM23.2052 65.1963L28.9222 61.0283L26.5658 57.7961L20.8488 61.9641L23.2052 65.1963ZM28.0751 69.3773L23.7156 62.5085L20.3384 64.6519L24.6979 71.5207L28.0751 69.3773ZM31.631 65.296L25.4257 68.6949L27.3473 72.2031L33.5525 68.8042L31.631 65.296ZM38.0185 68.4483C36.5158 67.6979 35.1573 66.734 33.9726 65.6033L31.2109 68.4969C32.6794 69.8985 34.3653 71.0949 36.2313 72.0268L38.0185 68.4483ZM38.0057 77.5353L39.1008 70.5472L35.149 69.928L34.054 76.9161L38.0057 77.5353ZM44.4057 77.0481L36.466 75.2738L35.5937 79.1775L43.5333 80.9519L44.4057 77.0481ZM44.0337 71.6496L42.0497 78.439L45.8892 79.5609L47.8731 72.7715L44.0337 71.6496ZM50.7785 69.359C49.2252 69.8779 47.5856 70.1717 45.9065 70.2111L46.0003 74.21C48.0855 74.161 50.1203 73.7961 52.0458 73.153L50.7785 69.359ZM57.1963 75.7948L53.0283 70.0778L49.7961 72.4342L53.9641 78.1512L57.1963 75.7948ZM61.3772 70.9249L54.5085 75.2844L56.6519 78.6616L63.5207 74.3021L61.3772 70.9249ZM57.296 67.3691L60.6949 73.5743L64.2031 71.6527L60.8042 65.4475L57.296 67.3691ZM60.4483 60.9815C59.6978 62.4842 58.734 63.8427 57.6033 65.0274L60.4969 67.7891C61.8985 66.3206 63.0949 64.6347 64.0268 62.7687L60.4483 60.9815ZM69.5353 60.9943L62.5472 59.8992L61.9279 63.851L68.9161 64.9461L69.5353 60.9943ZM69.0481 54.5944L67.2738 62.534L71.1775 63.4064L72.9519 55.4667L69.0481 54.5944ZM63.6495 54.9663L70.439 56.9503L71.5609 53.1108L64.7714 51.1269L63.6495 54.9663ZM61.359 48.2215C61.8778 49.7748 62.1716 51.4144 62.211 53.0935L66.2099 52.9997C66.161 50.9146 65.7961 48.8797 65.1529 46.9543L61.359 48.2215ZM67.7948 41.8037L62.0777 45.9718L64.4342 49.204L70.1512 45.0359L67.7948 41.8037ZM62.9249 37.6228L67.2844 44.4916L70.6616 42.3481L66.3021 35.4793L62.9249 37.6228ZM59.369 41.704L65.5743 38.3051L63.6527 34.7969L57.4474 38.1958L59.369 41.704ZM52.9815 38.5517C54.4841 39.3022 55.8427 40.266 57.0274 41.3967L59.7891 38.5031C58.3206 37.1015 56.6347 35.9051 54.7687 34.9732L52.9815 38.5517ZM52.9943 29.4647L51.8992 36.4529L55.851 37.0721L56.946 30.0839L52.9943 29.4647ZM52.616 55.0902C51.7378 59.0203 47.8398 61.4943 43.9097 60.616L43.0374 64.5197C49.1234 65.8798 55.1597 62.0487 56.5197 55.9626L52.616 55.0902ZM47.0902 46.3839C51.0203 47.2622 53.4943 51.1602 52.616 55.0902L56.5197 55.9626C57.8798 49.8766 54.0487 43.8403 47.9626 42.4802L47.0902 46.3839ZM38.384 51.9097C39.2622 47.9797 43.1602 45.5057 47.0902 46.3839L47.9626 42.4802C41.8766 41.1202 35.8403 44.9513 34.4802 51.0374L38.384 51.9097ZM43.9097 60.616C39.9797 59.7377 37.5057 55.8398 38.384 51.9097L34.4802 51.0374C33.1202 57.1234 36.9513 63.1597 43.0374 64.5197L43.9097 60.616Z" fill="#8F62CA"/>
<rect x="76.7796" y="63.8483" width="8.32793" height="7.40261" transform="rotate(-22.0593 76.7796 63.8483)" fill="#8F62CA"/>
<circle cx="72.1245" cy="41.2735" r="22.6705" transform="rotate(-22.0593 72.1245 41.2735)" fill="white" fill-opacity="0.6" stroke="#564B85" stroke-width="4" stroke-linecap="round" stroke-linejoin="round"/>
<path d="M77.8446 71.4039L88.9932 66.8862L104.805 105.906C106.053 108.985 104.569 112.492 101.49 113.74V113.74C98.4114 114.987 94.9044 113.503 93.6568 110.424L77.8446 71.4039Z" fill="white" stroke="#8F62CA" stroke-width="4" stroke-linecap="round" stroke-linejoin="round"/>
</g>
<defs>
<linearGradient id="paint0_linear" x1="14" y1="20" x2="120.597" y2="53.3696" gradientUnits="userSpaceOnUse">
<stop stop-color="#DAB6EC"/>
<stop offset="1" stop-color="#6F40BD"/>
</linearGradient>
<clipPath id="clip0">
<rect width="120" height="120" fill="white"/>
</clipPath>
</defs>
</svg>
