<svg width="120" height="120" viewBox="0 0 120 120" fill="none" xmlns="http://www.w3.org/2000/svg">
<rect x="6" y="12" width="108" height="96" rx="4" fill="white" stroke="#564B85" stroke-width="4" stroke-linejoin="round"/>
<rect x="14" y="32" width="92" height="48" fill="url(#paint0_linear)" fill-opacity="0.2"/>
<line x1="37" y1="49" x2="83" y2="49" stroke="#8F62CA" stroke-width="4" stroke-linecap="round" stroke-linejoin="round"/>
<line x1="16" y1="88" x2="76" y2="88" stroke="#564B85" stroke-width="4" stroke-linecap="round" stroke-linejoin="round"/>
<line x1="8" y1="24" x2="112" y2="24" stroke="#564B85" stroke-width="4" stroke-linecap="round" stroke-linejoin="round"/>
<line x1="16" y1="98" x2="62" y2="98" stroke="#564B85" stroke-width="4" stroke-linecap="round" stroke-linejoin="round"/>
<line x1="47" y1="59" x2="73" y2="59" stroke="#8F62CA" stroke-width="4" stroke-linecap="round" stroke-linejoin="round"/>
<path fill-rule="evenodd" clip-rule="evenodd" d="M106.433 92.8264L88.2375 79.5634L85.8494 101.953L92.4848 99.011L99.1727 114.095L106.486 110.852L99.7981 95.7684L106.433 92.8264Z" fill="white"/>
<path d="M88.2375 79.5634L89.4156 77.9472C88.8382 77.5263 88.0801 77.4454 87.4269 77.735C86.7737 78.0247 86.3246 78.6408 86.2488 79.3513L88.2375 79.5634ZM106.433 92.8264L107.244 94.6547C107.897 94.3651 108.346 93.749 108.422 93.0385C108.498 92.328 108.189 91.6311 107.612 91.2102L106.433 92.8264ZM85.8494 101.953L83.8607 101.741C83.7849 102.451 84.0939 103.148 84.6713 103.569C85.2488 103.99 86.0069 104.071 86.6601 103.781L85.8494 101.953ZM92.4848 99.011L94.3131 98.2004C93.8654 97.1906 92.6839 96.735 91.6741 97.1827L92.4848 99.011ZM99.1727 114.095L97.3443 114.906C97.7921 115.915 98.9736 116.371 99.9833 115.923L99.1727 114.095ZM106.486 110.852L107.297 112.681C108.306 112.233 108.762 111.051 108.314 110.042L106.486 110.852ZM99.7981 95.7684L98.9875 93.9401C97.9777 94.3878 97.5221 95.5693 97.9698 96.5791L99.7981 95.7684ZM87.0595 81.1796L105.255 94.4426L107.612 91.2102L89.4156 77.9472L87.0595 81.1796ZM87.8381 102.165L90.2263 79.7755L86.2488 79.3513L83.8607 101.741L87.8381 102.165ZM91.6741 97.1827L85.0387 100.125L86.6601 103.781L93.2954 100.839L91.6741 97.1827ZM101.001 113.284L94.3131 98.2004L90.6564 99.8217L97.3443 114.906L101.001 113.284ZM105.675 109.024L98.362 112.267L99.9833 115.923L107.297 112.681L105.675 109.024ZM97.9698 96.5791L104.658 111.663L108.314 110.042L101.626 94.9577L97.9698 96.5791ZM105.623 90.9981L98.9875 93.9401L100.609 97.5967L107.244 94.6547L105.623 90.9981Z" fill="#8F62CA"/>
<defs>
<linearGradient id="paint0_linear" x1="14" y1="32" x2="106" y2="80" gradientUnits="userSpaceOnUse">
<stop stop-color="#DAB6EC"/>
<stop offset="1" stop-color="#6F40BD"/>
</linearGradient>
</defs>
</svg>
