<svg width="198" height="143" viewBox="0 0 198 143" fill="none" xmlns="http://www.w3.org/2000/svg">
<rect x="141" y="26" width="22" height="15" stroke="#5C5C66" stroke-width="2"/>
<rect x="141" y="56" width="22" height="15" stroke="#5C5C66" stroke-width="2"/>
<rect x="173" y="26" width="22" height="15" stroke="#5C5C66" stroke-width="2"/>
<rect x="173" y="56" width="22" height="15" stroke="#5C5C66" stroke-width="2"/>
<rect x="157" y="41" width="22" height="15" stroke="#5C5C66" stroke-width="2"/>
<rect x="110" y="1" width="14" height="14" stroke="#5C5C66" stroke-width="2"/>
<rect x="4" y="1" width="14" height="56" stroke="#5C5C66" stroke-width="2"/>
<rect x="36" y="39" width="14" height="32" stroke="#5C5C66" stroke-width="2"/>
<rect x="66" y="39" width="14" height="32" stroke="#5C5C66" stroke-width="2"/>
<rect x="110" y="25" width="14" height="46" stroke="#5C5C66" stroke-width="2"/>
<rect x="36" y="57" width="14" height="32" transform="rotate(90 36 57)" stroke="#5C5C66" stroke-width="2"/>
<rect x="50" y="25" width="14" height="32" transform="rotate(90 50 25)" stroke="#5C5C66" stroke-width="2"/>
<rect x="96" y="25" width="14" height="30" transform="rotate(90 96 25)" stroke="#5C5C66" stroke-width="2"/>
<path d="M17.792 108H15.608V98.032C15.608 97.3787 15.4587 96.8467 15.16 96.436C14.8613 96.0067 14.3853 95.792 13.732 95.792C13.116 95.792 12.612 96.0253 12.22 96.492C11.8467 96.94 11.66 97.64 11.66 98.592V108H9.476V97.92C9.476 97.304 9.308 96.8 8.972 96.408C8.636 95.9973 8.188 95.792 7.628 95.792C6.956 95.792 6.43333 96.0347 6.06 96.52C5.70533 97.0053 5.528 97.64 5.528 98.424V108H3.344V94.112H5.528V95.624H5.864C6.10667 94.9707 6.46133 94.4947 6.928 94.196C7.39467 93.8787 7.94533 93.72 8.58 93.72C9.252 93.72 9.80267 93.8973 10.232 94.252C10.68 94.6067 10.988 95.064 11.156 95.624H11.492C12.1267 94.3547 13.1347 93.72 14.516 93.72C15.5613 93.72 16.364 94.056 16.924 94.728C17.5027 95.3813 17.792 96.24 17.792 97.304V108ZM47.2845 101.224C47.2845 102.381 47.0885 103.408 46.6965 104.304C46.3232 105.181 45.8192 105.928 45.1845 106.544C44.5499 107.141 43.8032 107.599 42.9445 107.916C42.1045 108.233 41.2272 108.392 40.3125 108.392C39.3792 108.392 38.4925 108.233 37.6525 107.916C36.8125 107.599 36.0752 107.141 35.4405 106.544C34.8059 105.928 34.2925 105.181 33.9005 104.304C33.5272 103.408 33.3405 102.381 33.3405 101.224V100.888C33.3405 99.7493 33.5272 98.7413 33.9005 97.864C34.2925 96.968 34.8059 96.212 35.4405 95.596C36.0939 94.98 36.8405 94.5133 37.6805 94.196C38.5205 93.8787 39.3979 93.72 40.3125 93.72C41.2272 93.72 42.1045 93.8787 42.9445 94.196C43.7845 94.5133 44.5219 94.98 45.1565 95.596C45.8099 96.212 46.3232 96.968 46.6965 97.864C47.0885 98.7413 47.2845 99.7493 47.2845 100.888V101.224ZM40.3125 106.32C40.9845 106.32 41.6005 106.208 42.1605 105.984C42.7392 105.741 43.2432 105.396 43.6725 104.948C44.1019 104.5 44.4379 103.968 44.6805 103.352C44.9232 102.717 45.0445 102.008 45.0445 101.224V100.888C45.0445 100.141 44.9232 99.46 44.6805 98.844C44.4379 98.2093 44.1019 97.668 43.6725 97.22C43.2432 96.772 42.7392 96.4267 42.1605 96.184C41.5819 95.9227 40.9659 95.792 40.3125 95.792C39.6592 95.792 39.0432 95.9227 38.4645 96.184C37.8859 96.4267 37.3819 96.772 36.9525 97.22C36.5232 97.668 36.1872 98.2093 35.9445 98.844C35.7019 99.46 35.5805 100.141 35.5805 100.888V101.224C35.5805 102.008 35.7019 102.717 35.9445 103.352C36.1872 103.968 36.5232 104.5 36.9525 104.948C37.3819 105.396 37.8765 105.741 38.4365 105.984C39.0152 106.208 39.6405 106.32 40.3125 106.32ZM74.6771 105.872H74.3411C74.1171 106.301 73.8277 106.675 73.4731 106.992C73.1371 107.309 72.7637 107.571 72.3531 107.776C71.9611 107.981 71.5411 108.131 71.0931 108.224C70.6451 108.336 70.2157 108.392 69.8051 108.392C68.8717 108.392 68.0037 108.233 67.2011 107.916C66.3984 107.599 65.6891 107.141 65.0731 106.544C64.4757 105.947 63.9997 105.209 63.6451 104.332C63.3091 103.436 63.1411 102.419 63.1411 101.28V100.832C63.1411 99.712 63.3184 98.7133 63.6731 97.836C64.0277 96.94 64.5037 96.1933 65.1011 95.596C65.6984 94.98 66.3984 94.5133 67.2011 94.196C68.0037 93.8787 68.8531 93.72 69.7491 93.72C70.7011 93.72 71.5877 93.9347 72.4091 94.364C73.2491 94.7747 73.8931 95.4187 74.3411 96.296H74.6771V88.4H76.8611V108H74.6771V105.872ZM70.0291 106.32C70.6824 106.32 71.2891 106.199 71.8491 105.956C72.4091 105.713 72.8944 105.368 73.3051 104.92C73.7344 104.472 74.0704 103.94 74.3131 103.324C74.5557 102.689 74.6771 101.989 74.6771 101.224V100.888C74.6771 100.141 74.5557 99.46 74.3131 98.844C74.0704 98.2093 73.7344 97.668 73.3051 97.22C72.8944 96.772 72.3997 96.4267 71.8211 96.184C71.2611 95.9227 70.6637 95.792 70.0291 95.792C69.3757 95.792 68.7597 95.9133 68.1811 96.156C67.6211 96.3987 67.1264 96.744 66.6971 97.192C66.2864 97.64 65.9597 98.172 65.7171 98.788C65.4931 99.404 65.3811 100.085 65.3811 100.832V101.28C65.3811 102.064 65.4931 102.764 65.7171 103.38C65.9597 103.996 66.2864 104.528 66.6971 104.976C67.1264 105.405 67.6211 105.741 68.1811 105.984C68.7411 106.208 69.3571 106.32 70.0291 106.32ZM103.582 94.112H105.766V108H103.582V105.48H103.246C102.798 106.376 102.21 107.085 101.482 107.608C100.754 108.131 99.8296 108.392 98.7096 108.392C97.9443 108.392 97.2349 108.261 96.5816 108C95.9469 107.757 95.3963 107.384 94.9296 106.88C94.4816 106.376 94.1269 105.751 93.8656 105.004C93.6229 104.257 93.5016 103.389 93.5016 102.4V94.112H95.6856V102.12C95.6856 103.576 95.9843 104.64 96.5816 105.312C97.1789 105.984 98.0936 106.32 99.3256 106.32C100.651 106.32 101.687 105.872 102.434 104.976C103.199 104.061 103.582 102.848 103.582 101.336V94.112ZM123.414 105.984H128.454V90.416H123.582V88.4H130.638V105.984H135.678V108H123.414V105.984ZM163.239 105.648H162.903C162.455 106.581 161.829 107.272 161.027 107.72C160.243 108.168 159.412 108.392 158.535 108.392C157.62 108.392 156.771 108.243 155.987 107.944C155.203 107.627 154.512 107.169 153.915 106.572C153.336 105.956 152.879 105.209 152.543 104.332C152.207 103.455 152.039 102.437 152.039 101.28V100.832C152.039 99.6933 152.207 98.6853 152.543 97.808C152.879 96.9307 153.336 96.1933 153.915 95.596C154.512 94.98 155.203 94.5133 155.987 94.196C156.771 93.8787 157.601 93.72 158.479 93.72C159.431 93.72 160.289 93.9347 161.055 94.364C161.839 94.7747 162.455 95.4187 162.903 96.296H163.239V94.112H165.423V105.144C165.423 105.704 165.675 105.984 166.179 105.984H166.879V108H165.395C164.76 108 164.237 107.795 163.827 107.384C163.435 106.973 163.239 106.451 163.239 105.816V105.648ZM158.759 106.32C159.412 106.32 160.009 106.199 160.551 105.956C161.111 105.713 161.587 105.368 161.979 104.92C162.371 104.472 162.679 103.94 162.903 103.324C163.127 102.689 163.239 101.989 163.239 101.224V100.888C163.239 100.141 163.127 99.46 162.903 98.844C162.679 98.2093 162.361 97.668 161.951 97.22C161.559 96.772 161.083 96.4267 160.523 96.184C159.981 95.9227 159.393 95.792 158.759 95.792C158.105 95.792 157.508 95.9133 156.967 96.156C156.425 96.3987 155.949 96.744 155.539 97.192C155.147 97.6213 154.839 98.1533 154.615 98.788C154.391 99.404 154.279 100.085 154.279 100.832V101.28C154.279 102.867 154.689 104.108 155.511 105.004C156.351 105.881 157.433 106.32 158.759 106.32ZM182.119 94.112H187.159V95.96H187.495C187.85 95.1947 188.354 94.6347 189.007 94.28C189.661 93.9067 190.407 93.72 191.247 93.72C192.647 93.72 193.777 94.1773 194.635 95.092C195.494 96.0067 195.951 97.3413 196.007 99.096L193.711 99.432C193.711 98.144 193.403 97.22 192.787 96.66C192.171 96.0813 191.415 95.792 190.519 95.792C189.941 95.792 189.437 95.904 189.007 96.128C188.597 96.352 188.251 96.66 187.971 97.052C187.691 97.444 187.486 97.9013 187.355 98.424C187.225 98.9467 187.159 99.5067 187.159 100.104V105.984H190.687V108H181.783V105.984H184.975V96.128H182.119V94.112Z" fill="#5C5C66"/>
<path d="M5.32 122.696C5.32 123.368 5.6 123.881 6.16 124.236C6.73867 124.591 7.784 124.824 9.296 124.936C10.92 125.067 12.152 125.459 12.992 126.112C13.8507 126.747 14.28 127.68 14.28 128.912V129.08C14.28 129.752 14.14 130.359 13.86 130.9C13.5987 131.423 13.2253 131.871 12.74 132.244C12.2733 132.617 11.6947 132.897 11.004 133.084C10.332 133.289 9.59467 133.392 8.792 133.392C7.70933 133.392 6.776 133.252 5.992 132.972C5.22667 132.673 4.58267 132.291 4.06 131.824C3.556 131.339 3.17333 130.797 2.912 130.2C2.65067 129.584 2.50133 128.968 2.464 128.352L4.536 127.848C4.62933 128.912 5.04 129.771 5.768 130.424C6.496 131.059 7.46667 131.376 8.68 131.376C9.70667 131.376 10.528 131.18 11.144 130.788C11.7787 130.377 12.096 129.808 12.096 129.08C12.096 128.296 11.788 127.736 11.172 127.4C10.556 127.064 9.55733 126.849 8.176 126.756C6.57067 126.644 5.33867 126.271 4.48 125.636C3.62133 125.001 3.192 124.077 3.192 122.864V122.696C3.192 122.043 3.332 121.473 3.612 120.988C3.892 120.484 4.26533 120.064 4.732 119.728C5.21733 119.392 5.75867 119.14 6.356 118.972C6.95333 118.804 7.57867 118.72 8.232 118.72C9.14667 118.72 9.94933 118.851 10.64 119.112C11.3307 119.355 11.9093 119.681 12.376 120.092C12.8427 120.484 13.1973 120.941 13.44 121.464C13.7013 121.987 13.8693 122.509 13.944 123.032L11.872 123.536C11.7787 122.64 11.4147 121.94 10.78 121.436C10.164 120.932 9.352 120.68 8.344 120.68C7.952 120.68 7.56933 120.727 7.196 120.82C6.84133 120.895 6.524 121.016 6.244 121.184C5.964 121.352 5.74 121.567 5.572 121.828C5.404 122.071 5.32 122.36 5.32 122.696ZM48.5605 130.48H48.2245C47.7765 131.376 47.1885 132.085 46.4605 132.608C45.7325 133.131 44.8085 133.392 43.6885 133.392C42.9232 133.392 42.2139 133.261 41.5605 133C40.9259 132.757 40.3752 132.384 39.9085 131.88C39.4605 131.376 39.1059 130.751 38.8445 130.004C38.6019 129.257 38.4805 128.389 38.4805 127.4V119.112H40.6645V127.12C40.6645 128.576 40.9632 129.64 41.5605 130.312C42.1579 130.984 43.0725 131.32 44.3045 131.32C45.6299 131.32 46.6659 130.872 47.4125 129.976C48.1779 129.061 48.5605 127.848 48.5605 126.336V119.112H50.7445V136.416C50.7445 137.051 50.5392 137.573 50.1285 137.984C49.7365 138.395 49.2232 138.6 48.5885 138.6H40.6645V136.584H47.8045C48.3085 136.584 48.5605 136.304 48.5605 135.744V130.48ZM77.4091 122.696C77.4091 123.368 77.6891 123.881 78.2491 124.236C78.8277 124.591 79.8731 124.824 81.3851 124.936C83.0091 125.067 84.2411 125.459 85.0811 126.112C85.9397 126.747 86.3691 127.68 86.3691 128.912V129.08C86.3691 129.752 86.2291 130.359 85.9491 130.9C85.6877 131.423 85.3144 131.871 84.8291 132.244C84.3624 132.617 83.7837 132.897 83.0931 133.084C82.4211 133.289 81.6837 133.392 80.8811 133.392C79.7984 133.392 78.8651 133.252 78.0811 132.972C77.3157 132.673 76.6717 132.291 76.1491 131.824C75.6451 131.339 75.2624 130.797 75.0011 130.2C74.7397 129.584 74.5904 128.968 74.5531 128.352L76.6251 127.848C76.7184 128.912 77.1291 129.771 77.8571 130.424C78.5851 131.059 79.5557 131.376 80.7691 131.376C81.7957 131.376 82.6171 131.18 83.2331 130.788C83.8677 130.377 84.1851 129.808 84.1851 129.08C84.1851 128.296 83.8771 127.736 83.2611 127.4C82.6451 127.064 81.6464 126.849 80.2651 126.756C78.6597 126.644 77.4277 126.271 76.5691 125.636C75.7104 125.001 75.2811 124.077 75.2811 122.864V122.696C75.2811 122.043 75.4211 121.473 75.7011 120.988C75.9811 120.484 76.3544 120.064 76.8211 119.728C77.3064 119.392 77.8477 119.14 78.4451 118.972C79.0424 118.804 79.6677 118.72 80.3211 118.72C81.2357 118.72 82.0384 118.851 82.7291 119.112C83.4197 119.355 83.9984 119.681 84.4651 120.092C84.9317 120.484 85.2864 120.941 85.5291 121.464C85.7904 121.987 85.9584 122.509 86.0331 123.032L83.9611 123.536C83.8677 122.64 83.5037 121.94 82.8691 121.436C82.2531 120.932 81.4411 120.68 80.4331 120.68C80.0411 120.68 79.6584 120.727 79.2851 120.82C78.9304 120.895 78.6131 121.016 78.3331 121.184C78.0531 121.352 77.8291 121.567 77.6611 121.828C77.4931 122.071 77.4091 122.36 77.4091 122.696ZM110.094 119.112H114.462V113.4H116.646V119.112H122.022V121.128H116.646V130.144C116.646 130.704 116.898 130.984 117.402 130.984H121.35V133H116.618C115.983 133 115.46 132.795 115.05 132.384C114.658 131.973 114.462 131.451 114.462 130.816V121.128H110.094V119.112ZM148.21 126.728C148.266 128.109 148.695 129.22 149.498 130.06C150.301 130.9 151.421 131.32 152.858 131.32C153.511 131.32 154.081 131.245 154.566 131.096C155.051 130.947 155.462 130.741 155.798 130.48C156.153 130.219 156.433 129.92 156.638 129.584C156.862 129.229 157.039 128.856 157.17 128.464L159.242 129.024C158.85 130.312 158.122 131.367 157.058 132.188C156.013 132.991 154.594 133.392 152.802 133.392C151.813 133.392 150.898 133.224 150.058 132.888C149.237 132.533 148.527 132.039 147.93 131.404C147.333 130.769 146.866 130.013 146.53 129.136C146.194 128.259 146.026 127.288 146.026 126.224V125.552C146.026 124.581 146.194 123.676 146.53 122.836C146.885 121.996 147.37 121.277 147.986 120.68C148.602 120.064 149.321 119.588 150.142 119.252C150.982 118.897 151.887 118.72 152.858 118.72C153.997 118.72 154.977 118.935 155.798 119.364C156.638 119.775 157.319 120.288 157.842 120.904C158.383 121.52 158.775 122.192 159.018 122.92C159.279 123.648 159.41 124.32 159.41 124.936V126.728H148.21ZM152.858 120.792C152.242 120.792 151.663 120.895 151.122 121.1C150.599 121.287 150.133 121.557 149.722 121.912C149.33 122.267 149.003 122.687 148.742 123.172C148.499 123.639 148.341 124.152 148.266 124.712H157.226C157.189 124.115 157.039 123.573 156.778 123.088C156.535 122.603 156.209 122.192 155.798 121.856C155.406 121.52 154.949 121.259 154.426 121.072C153.922 120.885 153.399 120.792 152.858 120.792ZM196.015 133H193.831V123.032C193.831 122.379 193.681 121.847 193.383 121.436C193.084 121.007 192.608 120.792 191.955 120.792C191.339 120.792 190.835 121.025 190.443 121.492C190.069 121.94 189.883 122.64 189.883 123.592V133H187.699V122.92C187.699 122.304 187.531 121.8 187.195 121.408C186.859 120.997 186.411 120.792 185.851 120.792C185.179 120.792 184.656 121.035 184.283 121.52C183.928 122.005 183.751 122.64 183.751 123.424V133H181.567V119.112H183.751V120.624H184.087C184.329 119.971 184.684 119.495 185.151 119.196C185.617 118.879 186.168 118.72 186.803 118.72C187.475 118.72 188.025 118.897 188.455 119.252C188.903 119.607 189.211 120.064 189.379 120.624H189.715C190.349 119.355 191.357 118.72 192.739 118.72C193.784 118.72 194.587 119.056 195.147 119.728C195.725 120.381 196.015 121.24 196.015 122.304V133Z" fill="#5C5C66"/>
</svg>
