<svg width="120" height="120" viewBox="0 0 120 120" fill="none" xmlns="http://www.w3.org/2000/svg">
<path fill-rule="evenodd" clip-rule="evenodd" d="M21.6001 114.3H98.0001C100.8 114.3 103.5 113.2 105.5 111.2C107.5 109.2 108.6 106.5 108.6 103.7V14.3L100.3 6L94.0001 12.4L87.6001 6L81.2001 12.4L74.8001 6L68.5001 12.4L62.1001 6L55.8001 12.4L49.4001 6L43.0001 12.4L36.7001 6L28.4001 14.3V34.3H11V103.7C11 106.5 12.1 109.2 14.1 111.2C16.1 113.2 18.8 114.3 21.6 114.3L21.6001 114.3ZM21.6001 110.599V110.4C23.4001 110.4 25.1001 109.7 26.4001 108.4C27.7001 107.1 28.4001 105.4 28.4001 103.6V38.2H14.9V103.8C14.9 105.6 15.6 107.3 16.9 108.6C18.1759 109.876 19.8372 110.574 21.6001 110.599ZM98.0001 110.4H29.8001C31.4001 108.5 32.2001 106.2 32.2001 103.7V15.9L36.6001 11.5L43.0001 17.9L49.2001 11.5L55.6001 17.9L62.0001 11.5L68.4001 17.9L74.8001 11.5L81.2001 17.9L87.6001 11.5L94.0001 17.9L100.4 11.5L104.8 15.9V103.6C104.8 105.4 104.1 107.1 102.8 108.4C101.5 109.7 99.8001 110.4 98.0001 110.4ZM40.2 36.2V54.2H96.8V36.2H40.2ZM92.8999 50.3H44.0999V40.1H92.8999V50.3ZM40.2 25H96.8V28.9H40.2V25ZM64.7 61.5H40.2V65.4H64.7V61.5ZM40.2 70.8H64.7V74.7H40.2V70.8ZM64.7 80.1H40.2V84H64.7V80.1ZM40.2 89.4H64.7V93.3H40.2V89.4ZM64.7 98.6H40.2V102.5H64.7V98.6ZM72.2 61.5H96.7V65.4H72.2V61.5ZM96.7 70.8H72.2V74.7H96.7V70.8ZM72.2 80.1H96.7V84H72.2V80.1ZM96.7 89.4H72.2V93.3H96.7V89.4ZM72.2 98.6H96.7V102.5H72.2V98.6Z" fill="#5C5C66"/>
</svg>
