<svg width="120" height="120" viewBox="0 0 120 120" fill="none" xmlns="http://www.w3.org/2000/svg">
<path fill-rule="evenodd" clip-rule="evenodd" d="M108.1 19.4H112V95.7358L108.1 91.8782V19.4ZM104.2 19.4H100.3V95.7001L104.2 91.8001V19.4ZM96.3999 17.4V7.8C96.3999 6.2 96.9999 4.8 98.0999 3.7C99.1999 2.6 100.7 2 102.2 2H110C111.6 2 113 2.6 114.1 3.7C115.2 4.8 115.8 6.3 115.8 7.8V17.4V19.4V100.9L106.1 117.9L96.3999 100.9V19.4V17.4ZM112 15.5H100.3H100.2V7.8C100.2 7.3 100.4 6.8 100.8 6.4C101.2 6 101.7 5.8 102.2 5.8H110C110.5 5.8 111 6 111.4 6.4C111.8 6.8 112 7.3 112 7.8V15.5ZM7.9 110.3V23.4H89.7V19.5H7.9V9.9H89.7V6H4V19.5V23.4V114.2H89.7V110.3H7.9ZM27.6001 12.7H31.5001V16.6H27.6001V12.7ZM23.7001 12.7H19.8V16.6H23.7001V12.7ZM12.1001 12.7H16.0001V16.6H12.1001V12.7ZM89.7001 106.1H12.1001V27.6H89.7001V31.4H15.9001V102.2H89.7001V106.1ZM40.2002 38.7H79.9002V42.6H40.2002V38.7ZM60.0002 47.3H40.2002V51.2H60.0002V47.3ZM21.6001 45.2L28.0001 51.6L37.3001 42.3L34.5001 39.6L28.0001 46.1L24.3001 42.4L21.6001 45.2ZM79.9002 55.9H40.2002V59.8H79.9002V55.9ZM40.2002 64.6H60.0002V68.5H40.2002V64.6ZM28.0001 68.9L21.6001 62.4L24.3001 59.7L28.0001 63.4L34.5001 56.9L37.3001 59.6L28.0001 68.9ZM40.2002 73H79.9002V76.9H40.2002V73ZM60.0002 81.7H40.2002V85.6H60.0002V81.7ZM21.6001 79.5L28.0001 86L37.3001 76.7L34.5001 74L28.0001 80.5L24.3001 76.8L21.6001 79.5ZM106.1 110.1L100.771 100.729L106.1 95.4L111.487 100.787L106.1 110.1Z" fill="#5C5C66"/>
</svg>
