<svg width="120" height="120" viewBox="0 0 120 120" fill="none" xmlns="http://www.w3.org/2000/svg">
<path fill-rule="evenodd" clip-rule="evenodd" d="M8.8999 60.8H110.6V8H8.8999V60.8ZM106.7 56.9H12.7999V11.9H106.7V56.9ZM15.8 54H103.7V15H15.8V54ZM99.8 50.1H19.7001V18.9H99.8V50.1ZM61.7001 66.9H57.8V75.3H16.8999V87.5H20.7999V79.2H57.8V87.5H61.7001V79.2H98.6999V87.5H102.6V75.3H61.7001V66.9ZM18.9 117.3C11.8 117.3 6 111.6 6 104.5C6 97.4 11.8 91.6 18.9 91.6C26 91.6 31.8 97.4 31.8 104.5C31.7 111.6 25.9 117.3 18.9 117.3ZM18.9 95.5C14 95.5 9.9 99.5 9.9 104.5C9.9 109.4 13.9 113.5 18.9 113.5C23.8 113.5 27.9 109.5 27.9 104.5C27.8 99.5 23.8 95.5 18.9 95.5ZM46.8999 104.4C46.8999 111.5 52.6999 117.3 59.7999 117.3C66.7999 117.3 72.5999 111.6 72.6999 104.4C72.6999 97.3 66.8999 91.5 59.7999 91.5C52.6999 91.5 46.8999 97.3 46.8999 104.4ZM50.7999 104.5C50.7999 99.5 54.8999 95.5 59.7999 95.5C64.6999 95.5 68.6999 99.5 68.7999 104.5C68.7999 109.5 64.7999 113.5 59.7999 113.5C54.7999 113.5 50.7999 109.4 50.7999 104.5ZM100.7 117.3C93.6 117.3 87.8 111.5 87.8 104.4C87.8 97.3 93.6 91.5 100.7 91.5C107.8 91.5 113.6 97.3 113.6 104.4C113.5 111.6 107.8 117.3 100.7 117.3ZM100.7 95.5C95.8 95.5 91.7 99.5 91.7 104.5C91.7 109.4 95.7 113.5 100.7 113.5C105.6 113.5 109.7 109.5 109.7 104.5C109.6 99.5 105.6 95.5 100.7 95.5ZM57.8 32H61.7001V35.9H57.8V32ZM53.9 32H50V35.9H53.9V32ZM65.6001 32H69.5001V35.9H65.6001V32Z" fill="#5C5C66"/>
</svg>
