<?xml version="1.0" encoding="UTF-8"?>
<svg version="1.1" viewBox="0 0 24 24" xmlns="http://www.w3.org/2000/svg" xmlns:xlink="http://www.w3.org/1999/xlink">
    <!--Generated by IJSVG (https://github.com/iconjar/IJSVG)-->
    <path d="M23.495,6.205l-2.77763e-08,-9.95262e-08c-0.282809,-1.01334 -1.07466,-1.80519 -2.088,-2.088c-1.87,-0.501 -9.396,-0.501 -9.396,-0.501c0,0 -7.507,-0.01 -9.396,0.501l-1.09789e-07,3.06404e-08c-1.01334,0.282809 -1.80519,1.07466 -2.088,2.088l-7.96499e-07,4.30182e-06c-0.354479,1.91451 -0.529239,3.85796 -0.521999,5.805l2.87726e-07,-9.50146e-05c-0.00587677,1.93969 0.168872,3.87571 0.521982,5.783l5.34699e-08,1.9159e-07c0.282809,1.01334 1.07466,1.80519 2.088,2.088c1.868,0.502 9.396,0.502 9.396,0.502c0,0 7.506,0 9.396,-0.502l-2.7076e-08,7.55651e-09c1.01334,-0.282809 1.80519,-1.07466 2.088,-2.088l1.37154e-06,-7.56888e-06c0.345738,-1.90797 0.513126,-3.84398 0.499999,-5.78298l5.9393e-07,-7.97572e-05c0.0144914,-1.94635 -0.152907,-3.88979 -0.500013,-5.80499Zm-13.886,9.396v-7.193l6.264,3.602Z" fill="#FFF"></path>
</svg>