<svg width="120" height="68" viewBox="0 0 120 68" fill="none" xmlns="http://www.w3.org/2000/svg">
<rect x="0.5" y="0.5" width="119" height="66.5" fill="#E0E0E2" stroke="#CECFD2"/>
<mask id="mask0" mask-type="alpha" maskUnits="userSpaceOnUse" x="0" y="0" width="120" height="68">
<rect x="0.5" y="0.5" width="119" height="66.5" fill="#E0E0E2" stroke="#CECFD2"/>
</mask>
<g mask="url(#mask0)">
<path d="M0 0L120 67.5" stroke="#CECFD2"/>
<path d="M120 -7.85135e-07L-4.76951e-06 67.5" stroke="#CECFD2"/>
</g>
<rect x="33" y="21" width="53" height="26" fill="#E0E0E2"/>
<path d="M40.022 39V31.944H41.436V39H40.022ZM39.924 28.864H41.562V30.348H39.924V28.864ZM43.4947 39V33.932C43.4947 33.6053 43.4853 33.274 43.4667 32.938C43.4573 32.602 43.4293 32.2707 43.3827 31.944H44.7267L44.8527 33.372L44.7127 33.428C44.89 32.9053 45.184 32.4993 45.5947 32.21C46.0053 31.9207 46.4953 31.776 47.0647 31.776C47.7367 31.776 48.2593 31.944 48.6327 32.28C49.0153 32.6067 49.2627 33.1153 49.3747 33.806L49.0387 33.568C49.1973 33.0173 49.5007 32.5833 49.9487 32.266C50.406 31.9393 50.9427 31.776 51.5587 31.776C52.3427 31.776 52.9307 32.014 53.3227 32.49C53.7147 32.9567 53.9107 33.666 53.9107 34.618V39H52.4967V34.674C52.4967 34.0673 52.3893 33.624 52.1747 33.344C51.9693 33.064 51.6333 32.924 51.1667 32.924C50.6253 32.924 50.196 33.1107 49.8787 33.484C49.5707 33.8573 49.4167 34.366 49.4167 35.01V39H48.0027V34.674C48.0027 34.0673 47.8953 33.624 47.6807 33.344C47.466 33.064 47.13 32.924 46.6727 32.924C46.122 32.924 45.688 33.1107 45.3707 33.484C45.0627 33.8573 44.9087 34.366 44.9087 35.01V39H43.4947ZM58.6524 39.098C58.0271 39.098 57.4764 38.9533 57.0004 38.664C56.5337 38.3653 56.1697 37.9453 55.9084 37.404C55.6564 36.8533 55.5304 36.2093 55.5304 35.472C55.5304 34.7347 55.6611 34.0907 55.9224 33.54C56.1837 32.98 56.5477 32.546 57.0144 32.238C57.4904 31.93 58.0364 31.776 58.6524 31.776C59.2777 31.776 59.8097 31.93 60.2484 32.238C60.6964 32.5367 60.9997 32.966 61.1584 33.526L60.9904 33.638V31.944H62.3904V39H60.9904V37.278L61.1584 37.348C60.9997 37.908 60.6964 38.342 60.2484 38.65C59.8097 38.9487 59.2777 39.098 58.6524 39.098ZM58.9884 37.978C59.6231 37.978 60.1131 37.7587 60.4584 37.32C60.8131 36.8813 60.9904 36.256 60.9904 35.444C60.9904 34.632 60.8131 34.0067 60.4584 33.568C60.1131 33.1293 59.6231 32.91 58.9884 32.91C58.3444 32.91 57.8404 33.1387 57.4764 33.596C57.1217 34.044 56.9444 34.6693 56.9444 35.472C56.9444 36.2747 57.1217 36.8953 57.4764 37.334C57.8404 37.7633 58.3444 37.978 58.9884 37.978ZM67.6176 42.122C66.5443 42.122 65.6063 41.8887 64.8036 41.422L65.0276 40.316C65.4663 40.5493 65.8863 40.722 66.2876 40.834C66.689 40.946 67.1276 41.002 67.6036 41.002C68.257 41.002 68.7516 40.834 69.0876 40.498C69.4236 40.162 69.5916 39.658 69.5916 38.986V37.152L69.7456 37.054C69.6336 37.39 69.4563 37.6933 69.2136 37.964C68.9803 38.2253 68.691 38.4307 68.3456 38.58C68.0096 38.72 67.6316 38.79 67.2116 38.79C66.5863 38.79 66.0356 38.6453 65.5596 38.356C65.093 38.0573 64.7243 37.6467 64.4536 37.124C64.1923 36.6013 64.0616 35.9853 64.0616 35.276C64.0616 34.576 64.1923 33.9647 64.4536 33.442C64.7243 32.9193 65.093 32.5133 65.5596 32.224C66.0356 31.9253 66.5863 31.776 67.2116 31.776C67.8463 31.776 68.3876 31.93 68.8356 32.238C69.2836 32.546 69.587 32.9753 69.7456 33.526L69.5776 33.456V31.944H70.9916V38.86C70.9916 39.9427 70.707 40.7547 70.1376 41.296C69.5683 41.8467 68.7283 42.122 67.6176 42.122ZM67.5476 37.656C68.1823 37.656 68.677 37.446 69.0316 37.026C69.3956 36.606 69.5776 36.0227 69.5776 35.276C69.5776 34.548 69.3956 33.974 69.0316 33.554C68.677 33.1247 68.1823 32.91 67.5476 32.91C66.9036 32.91 66.395 33.12 66.0216 33.54C65.6576 33.96 65.4756 34.5387 65.4756 35.276C65.4756 36.0227 65.6576 36.606 66.0216 37.026C66.395 37.446 66.9036 37.656 67.5476 37.656ZM78.9476 38.188C78.6302 38.468 78.2289 38.692 77.7436 38.86C77.2582 39.0187 76.7636 39.098 76.2596 39.098C75.5129 39.098 74.8689 38.9533 74.3276 38.664C73.7862 38.3747 73.3709 37.9547 73.0816 37.404C72.7922 36.8533 72.6476 36.2 72.6476 35.444C72.6476 34.716 72.7876 34.0767 73.0676 33.526C73.3569 32.9753 73.7536 32.546 74.2576 32.238C74.7616 31.93 75.3449 31.776 76.0076 31.776C76.6422 31.776 77.1882 31.916 77.6456 32.196C78.1029 32.476 78.4529 32.8773 78.6956 33.4C78.9476 33.9133 79.0736 34.534 79.0736 35.262V35.5H73.8796L73.8936 34.66H78.2476L77.8416 35.164C77.8509 34.408 77.7016 33.8293 77.3936 33.428C77.0856 33.0267 76.6329 32.826 76.0356 32.826C75.4102 32.826 74.9202 33.05 74.5656 33.498C74.2109 33.9367 74.0336 34.5527 74.0336 35.346C74.0336 36.2327 74.2249 36.8953 74.6076 37.334C74.9902 37.7633 75.5502 37.978 76.2876 37.978C76.6889 37.978 77.0762 37.9127 77.4496 37.782C77.8229 37.6513 78.1776 37.4507 78.5136 37.18L78.9476 38.188Z" fill="#7F8088"/>
</svg>
