<?xml version="1.0" encoding="UTF-8"?>
<svg version="1.1" viewBox="0 0 24 24" xmlns="http://www.w3.org/2000/svg" xmlns:xlink="http://www.w3.org/1999/xlink">
    <!--Generated by IJSVG (https://github.com/iconjar/IJSVG)-->
    <path d="M24,8.182l-0.018,-0.087l-0.017,-0.05c-0.01,-0.024 -0.018,-0.05 -0.03,-0.075c-0.003,-0.018 -0.015,-0.034 -0.02,-0.05l-0.035,-0.067l-0.03,-0.05l-0.044,-0.06l-0.046,-0.045l-0.06,-0.045l-0.046,-0.03l-0.06,-0.044l-0.044,-0.04l-0.015,-0.02l-10.955,-7.329c-0.347,-0.232 -0.796,-0.232 -1.142,4.44089e-16l-10.985,7.312l-0.015,0.015l-0.044,0.035l-0.06,0.05l-0.038,0.04l-0.05,0.056l-0.037,0.045l-0.05,0.06c-0.02,0.017 -0.03,0.03 -0.03,0.046l-0.05,0.06l-0.02,0.06c-0.02,0.01 -0.02,0.04 -0.03,0.07l-0.01,0.05c-0.019,0.031 -0.019,0.061 -0.019,0.091v7.497c0,0.044 0.003,0.09 0.01,0.135l0.01,0.046c0.005,0.03 0.01,0.06 0.02,0.086l0.015,0.05c0.01,0.027 0.016,0.053 0.027,0.075l0.022,0.05c0,0.01 0.015,0.04 0.03,0.06l0.03,0.04c0.015,0.01 0.03,0.04 0.045,0.06l0.03,0.04l0.04,0.04c0.01,0.013 0.01,0.03 0.03,0.03l0.06,0.042l0.04,0.03l0.01,0.014l10.97,7.33c0.164,0.12 0.375,0.163 0.57,0.163c0.195,0 0.39,-0.06 0.57,-0.18l10.99,-7.28l0.014,-0.01l0.046,-0.037l0.06,-0.043l0.048,-0.036l0.052,-0.058l0.033,-0.045l0.04,-0.06l0.03,-0.05l0.03,-0.07l0.016,-0.052l0.03,-0.077l0.015,-0.045l0.03,-0.08v-7.5c0,-0.05 0,-0.095 -0.016,-0.14l-0.014,-0.045l0.044,0.003Zm-11.99,6.28l-3.65,-2.44l3.65,-2.442l3.65,2.44l-3.65,2.44Zm-1.034,-6.674l-4.473,2.99l-3.613,-2.416l8.086,-5.39v4.818Zm-6.33,4.233l-2.582,1.73v-3.451l2.582,1.726Zm1.857,1.25l4.473,2.99v4.82l-8.086,-5.391l3.618,-2.417v-0.004Zm6.537,2.99l4.474,-2.98l3.613,2.42l-8.087,5.39v-4.82Zm6.33,-4.23l2.583,-1.72v3.456l-2.583,-1.73Zm-1.855,-1.24l-4.473,-2.991v-4.83l8.085,5.39l-3.612,2.415v0.003Z" fill="#000"></path>
</svg>