<?xml version="1.0" encoding="UTF-8"?>
<svg version="1.1" viewBox="0 0 24 24" xmlns="http://www.w3.org/2000/svg" xmlns:xlink="http://www.w3.org/1999/xlink">
    <!--Generated by IJSVG (https://github.com/iconjar/IJSVG)-->
    <path d="M12,24c-6.615,0 -12,-5.385 -12,-12c0,-6.615 5.385,-12 12,-12c6.615,0 12,5.385 12,12c0,6.615 -5.385,12 -12,12Zm10.12,-10.358c-0.35,-0.11 -3.17,-0.953 -6.384,-0.438c1.34,3.684 1.887,6.684 1.992,7.308c2.3,-1.555 3.936,-4.02 4.395,-6.87Zm-6.115,7.808c-0.153,-0.9 -0.75,-4.032 -2.19,-7.77l-0.066,0.02c-5.79,2.015 -7.86,6.025 -8.04,6.4c1.73,1.358 3.92,2.166 6.29,2.166c1.42,0 2.77,-0.29 4,-0.814Zm-11.62,-2.58c0.232,-0.4 3.045,-5.055 8.332,-6.765c0.135,-0.045 0.27,-0.084 0.405,-0.12c-0.26,-0.585 -0.54,-1.167 -0.832,-1.74c-5.12,1.53 -10.084,1.465 -10.534,1.455l-0.004,0.312c0,2.633 0.998,5.037 2.634,6.855Zm-2.42,-8.955c0.46,0.008 4.683,0.026 9.477,-1.248c-1.698,-3.018 -3.53,-5.558 -3.8,-5.928c-2.868,1.35 -5.01,3.99 -5.676,7.17Zm7.635,-7.863c0.282,0.38 2.145,2.914 3.822,6c3.645,-1.365 5.19,-3.44 5.373,-3.702c-1.81,-1.61 -4.19,-2.586 -6.795,-2.586c-0.825,0 -1.63,0.1 -2.4,0.285Zm10.335,3.483c-0.218,0.29 -1.935,2.493 -5.724,4.04c0.24,0.49 0.47,0.985 0.68,1.486c0.08,0.18 0.15,0.36 0.22,0.53c3.41,-0.43 6.8,0.26 7.14,0.33c-0.02,-2.42 -0.88,-4.64 -2.31,-6.38Z" fill="#000"></path>
</svg>