<svg width="297" height="83" viewBox="0 0 297 83" fill="none" xmlns="http://www.w3.org/2000/svg">
<circle cx="72.88" cy="38" r="38" fill="url(#paint0_linear)"/>
<path fill-rule="evenodd" clip-rule="evenodd" d="M100.089 43.84V36H138.049V43.84H123.289V81.64H114.849V43.84H100.089ZM242.781 36V82H234.401V62.62H212.121V82H203.681V36H212.121V54.72H234.401V36H242.781ZM296.19 74.16V82H262.49V36H295.29V43.84H270.93V54.78H292.65V62.56H270.93V74.16H296.19Z" fill="#3F3F3F"/>
<path d="M11.7194 79.7142L11.7105 79.7093C8.08235 77.6985 5.20202 74.9077 3.09942 71.3596L3.09203 71.3471L3.08482 71.3346C1.01938 67.731 0 63.7242 0 59.36C0 54.9961 1.01937 51.005 3.09012 47.4362L3.09396 47.4296C5.19853 43.8343 8.10423 41.0184 11.7794 39.0058C15.4588 36.9909 19.5538 36 24.02 36C27.3659 36 30.4974 36.5585 33.3931 37.6992C36.3017 38.845 38.798 40.5334 40.8519 42.7659L42.1507 44.1777L36.5514 49.777L35.1372 48.3456C32.2617 45.435 28.6477 43.96 24.14 43.96C21.1385 43.96 18.4579 44.6434 16.0556 45.9859C13.6426 47.3344 11.7642 49.162 10.3877 51.4877C9.05945 53.7985 8.38 56.4066 8.38 59.36C8.38 62.3133 9.05943 64.9214 10.3876 67.2322C11.7641 69.558 13.6425 71.3856 16.0556 72.7341C18.4579 74.0766 21.1385 74.76 24.14 74.76C28.6851 74.76 32.2894 73.2675 35.1203 70.3317L36.5341 68.8656L42.1507 74.4823L40.8519 75.8941C38.798 78.1265 36.2854 79.8311 33.3476 81.015L33.3403 81.018L33.3331 81.0208C30.4374 82.1615 27.3059 82.72 23.96 82.72C19.4938 82.72 15.3988 81.7291 11.7194 79.7142Z" fill="#3F3F3F"/>
<path fill-rule="evenodd" clip-rule="evenodd" d="M72.88 36.1453L68.7727 36.1615L48.2545 82H58.115L72.88 49.0144L72.9232 48.918L84.4794 74.1971C87.3735 73.2704 90.1167 72.0063 92.6626 70.4509L76.9726 36.1291L72.88 36.1453Z" fill="#3F3F3F"/>
<path d="M158.719 79.7142L158.71 79.7093C155.082 77.6985 152.202 74.9077 150.099 71.3596L150.092 71.3471L150.085 71.3346C148.019 67.731 147 63.7242 147 59.36C147 54.9961 148.019 51.005 150.09 47.4362L150.094 47.4296C152.199 43.8343 155.104 41.0184 158.779 39.0058C162.459 36.9909 166.554 36 171.02 36C174.366 36 177.497 36.5585 180.393 37.6992C183.302 38.845 185.798 40.5334 187.852 42.7659L189.151 44.1777L183.551 49.777L182.137 48.3456C179.262 45.435 175.648 43.96 171.14 43.96C168.138 43.96 165.458 44.6434 163.056 45.9859C160.643 47.3344 158.764 49.162 157.388 51.4877C156.059 53.7985 155.38 56.4066 155.38 59.36C155.38 62.3133 156.059 64.9214 157.388 67.2322C158.764 69.558 160.643 71.3856 163.056 72.7341C165.458 74.0766 168.138 74.76 171.14 74.76C175.685 74.76 179.289 73.2675 182.12 70.3317L183.534 68.8656L189.151 74.4823L187.852 75.8941C185.798 78.1265 183.285 79.8311 180.348 81.015L180.34 81.018L180.333 81.0208C177.437 82.1615 174.306 82.72 170.96 82.72C166.494 82.72 162.399 81.7291 158.719 79.7142Z" fill="#3F3F3F"/>
<defs>
<linearGradient id="paint0_linear" x1="54" y1="8" x2="91" y2="69.5" gradientUnits="userSpaceOnUse">
<stop stop-color="#E6764D"/>
<stop offset="1" stop-color="#FFA825"/>
</linearGradient>
</defs>
</svg>
